<svg viewBox="0 0 100 100" xmlns="http://www.w3.org/2000/svg" includedemo="true"><symbol viewBox="0 0 32 32" id="icon-house"><title>House</title>  <path fill="currentColor" class="icons-background" d="M15 5l11 11h2v-1l-13-13-13 13v1h2l11-11zM12 22v8h-8v-12l11-11 11 11v12h-8v-8h-6z"/> </symbol><symbol viewBox="0 0 32 32" id="icon-people"><title>People</title>  <path fill="currentColor" class="icons-background" d="M23 23.1c-0.6-0.1-0.6-1.7-0.6-1.7s1.7-1.7 2.1-4c1 0 1.6-2.4 0.6-3.3 0-0.9 1.3-7.1-5.1-7.1s-5.2 6.2-5.1 7.1c-1 0.9-0.4 3.3 0.6 3.3 0.4 2.3 2.1 4 2.1 4s0 1.6-0.6 1.7c-1.9 0.3-9 3.4-9 6.8h24c0-3.4-7.1-6.5-9-6.8zM10.8 23.7c1.4-0.8 3.1-1.6 4.4-2.1-0.5-0.7-1-1.7-1.4-2.8-0.5-0.4-0.9-1-1.1-1.6-0.3-0.7-0.3-1.5-0.3-2.2 0.1-0.5 0.2-1 0.4-1.4-0.1-1.5-0.2-4.3 1.6-6.4 0.7-0.8 1.6-1.4 2.7-1.7-0.1-2.1-1.1-4.5-5.1-4.5-6.4 0-5.2 6.2-5.1 7.1-1 0.9-0.4 3.3 0.6 3.3 0.4 2.3 2.1 4 2.1 4s0 1.6-0.6 1.7c-1.9 0.3-9 3.4-9 6.8h10.3c0.1-0.1 0.3-0.1 0.5-0.2z"/> </symbol><symbol viewBox="0 0 32 32" id="icon-person"><title>Person</title>  <path fill="currentColor" class="icons-background" d="M19.5 22c-0.7-0.1-0.7-2-0.7-2s2-2 2.5-4.7c1.2 0 1.9-2.9 0.7-3.9 0-1.1 1.5-8.4-6-8.4s-6 7.3-6 8.4c-1.2 1-0.5 3.9 0.7 3.9 0.4 2.7 2.5 4.7 2.5 4.7s0 1.9-0.7 2c-2.2 0.3-10.5 4-10.5 8h28c0-4-8.3-7.7-10.5-8z"/> </symbol></svg>